; NON-PLATED HOLES START AT T1
; THROUGH (PLATED) HOLES START AT T100
M48
INCH
T1C0.165354
T2C0.086614
T100C0.038000
T101C0.052000
T102C0.035000
%
T1
X006087Y015748
T2
X000784Y000787
X011414Y000787
X000784Y016141
X011414Y016141
T100
X004111Y000861
X001178Y011810
X010626Y013779
X006111Y001861
X005111Y001861
X010626Y012779
X008839Y016141
X006111Y000861
X007839Y016141
X005111Y000861
X008111Y001861
X007111Y001861
X004111Y001861
X001178Y012810
X008111Y000861
X009839Y016141
X007111Y000861
T101
X000784Y002118
X000784Y005118
T102
X001571Y007480
X009445Y007480
X004834Y014196
X003934Y007480
X008264Y003480
X001236Y008802
X008428Y008812
X002752Y011810
X002752Y007480
X007393Y006980
X004834Y008807
X007393Y012424
X001236Y010574
X008428Y010584
X001571Y003480
X004834Y010579
X009445Y003480
X003934Y003480
X002752Y003480
X010626Y007480
X004834Y006980
X007393Y005208
X004834Y012424
X010988Y008812
X007393Y014196
X008264Y007480
X010988Y010584
X003795Y008802
X002752Y015810
X007393Y008807
X010626Y003480
X003795Y010574
X004834Y005208
X007393Y010579
T00
M30
