G04 MADE WITH FRITZING*
G04 WWW.FRITZING.ORG*
G04 DOUBLE SIDED*
G04 HOLES PLATED*
G04 CONTOUR ON CENTER OF CONTOUR VECTOR*
%ASAXBY*%
%FSLAX23Y23*%
%MOIN*%
%OFA0B0*%
%SFA1.0B1.0*%
%ADD10C,0.088000*%
%ADD11C,0.096614*%
%ADD12C,0.175354*%
%ADD13C,0.085000*%
%ADD14C,0.102000*%
%ADD15R,0.088000X0.088000*%
%ADD16R,0.102000X0.102000*%
%LNMASK0*%
G90*
G70*
G54D10*
X784Y1614D03*
X884Y1614D03*
X984Y1614D03*
X78Y1339D03*
X78Y1439D03*
X411Y86D03*
X511Y86D03*
X611Y86D03*
X711Y86D03*
X811Y86D03*
X411Y86D03*
X511Y86D03*
X611Y86D03*
X711Y86D03*
X811Y86D03*
X811Y186D03*
X711Y186D03*
X611Y186D03*
X511Y186D03*
X411Y186D03*
G54D11*
X78Y1614D03*
X1141Y1614D03*
X78Y79D03*
X1141Y79D03*
G54D12*
X609Y1575D03*
G54D13*
X739Y1242D03*
X483Y1242D03*
X739Y1420D03*
X483Y1420D03*
X380Y880D03*
X124Y880D03*
X380Y1057D03*
X124Y1057D03*
X483Y698D03*
X739Y698D03*
X483Y521D03*
X739Y521D03*
X1099Y881D03*
X843Y881D03*
X1099Y1058D03*
X843Y1058D03*
X739Y881D03*
X483Y881D03*
X739Y1058D03*
X483Y1058D03*
X157Y748D03*
X157Y348D03*
X275Y748D03*
X275Y348D03*
X1063Y748D03*
X1063Y348D03*
X945Y748D03*
X945Y348D03*
X826Y748D03*
X826Y348D03*
X393Y748D03*
X393Y348D03*
G54D14*
X78Y512D03*
X78Y212D03*
G54D15*
X784Y1614D03*
X78Y1339D03*
G54D16*
X78Y512D03*
G04 End of Mask0*
M02*