; NON-PLATED HOLES START AT T1
; THROUGH (PLATED) HOLES START AT T100
M48
INCH
T1C0.165354
T2C0.086614
T100C0.038000
T101C0.052000
T102C0.035000
%
T1
X006087Y015748
T2
X000784Y000787
X011414Y000787
X000784Y016141
X011414Y016141
T100
X004111Y000861
X006111Y001861
X005111Y001861
X000784Y014385
X008839Y016141
X006111Y000861
X007839Y016141
X005111Y000861
X008111Y001861
X007111Y001861
X000784Y013385
X004111Y001861
X008111Y000861
X009839Y016141
X007111Y000861
T101
X000784Y002118
X000784Y005118
T102
X007393Y014196
X009445Y003480
X003934Y003480
X010626Y007480
X010988Y010584
X010988Y008812
X002752Y003480
X008264Y007480
X001571Y003480
X004834Y012424
X010626Y003480
X007393Y012424
X004834Y006980
X003795Y010574
X003795Y008802
X009445Y007480
X007393Y006980
X003934Y007480
X008428Y010584
X008428Y008812
X008264Y003480
X002752Y007480
X001236Y010574
X001236Y008802
X004834Y010579
X004834Y008807
X004834Y005208
X007393Y010579
X007393Y008807
X001571Y007480
X007393Y005208
X004834Y014196
T00
M30
